<svg width="266" height="361" viewBox="0 0 266 361" fill="none" xmlns="http://www.w3.org/2000/svg">
<path d="M265.5 83.832V9.35246C265.5 4.46338 261.545 0.5 256.667 0.5H144.07C129.592 0.5 115.918 7.17176 106.988 18.5928L4.26065 149.976C1.82407 153.092 0.5 156.937 0.5 160.896V200.104C0.5 204.063 1.82406 207.908 4.26065 211.024L106.988 342.407C115.918 353.828 129.592 360.5 144.07 360.5H256.667C261.545 360.5 265.5 356.537 265.5 351.648V276.034C265.5 272.155 262.98 268.728 259.284 267.579L46.1741 201.331C43.7096 200.565 42.0299 198.28 42.0299 195.695V165.284C42.0299 162.708 43.6964 160.43 46.1474 159.655L259.324 92.2745C263 91.1125 265.5 87.6953 265.5 83.832Z" stroke="currentColor"/>
</svg>
