<svg width="822" height="1117" viewBox="0 0 822 1117" fill="none" xmlns="http://www.w3.org/2000/svg">
<path d="M821.5 258.329V27.4433C821.5 12.2855 809.248 0 794.133 0H445.297C400.442 0 358.077 20.6821 330.411 56.0884L12.1509 463.376C4.6021 473.036 0.5 484.955 0.5 497.228V618.772C0.5 631.045 4.6021 642.964 12.1509 652.624L330.411 1059.91C358.077 1095.32 400.442 1116 445.297 1116H794.133C809.247 1116 821.5 1103.71 821.5 1088.56V854.154C821.5 842.13 813.694 831.506 802.241 827.944L142.003 622.577C134.368 620.202 129.164 613.119 129.164 605.103V510.83C129.164 502.846 134.327 495.784 141.921 493.382L802.365 284.501C813.755 280.899 821.5 270.306 821.5 258.329Z" stroke="currentColor"/>
</svg>
