<svg width="149" height="32" viewBox="0 0 149 32" fill="none" xmlns="http://www.w3.org/2000/svg">
<path d="M23.6066 7.40729V0.786885C23.6066 0.352301 23.2543 0 22.8197 0H12.7894C11.4997 0 10.2816 0.593045 9.48607 1.60825L0.335004 13.2868C0.11795 13.5638 0 13.9055 0 14.2574V17.7426C0 18.0945 0.117949 18.4362 0.335004 18.7132L9.48607 30.3917C10.2816 31.407 11.4997 32 12.7894 32H22.8197C23.2543 32 23.6066 31.6477 23.6066 31.2131V24.4919C23.6066 24.1471 23.3821 23.8425 23.0528 23.7403L4.06871 17.8517C3.84917 17.7836 3.69954 17.5805 3.69954 17.3506V14.6475C3.69954 14.4185 3.848 14.216 4.06633 14.1472L23.0564 8.15773C23.3839 8.05444 23.6066 7.75069 23.6066 7.40729Z" fill="currentColor"/>
<path d="M41.8154 25.091C35.1383 25.091 33.5738 20.8445 33.5738 15.9553C33.5738 11.0662 35.1662 6.8197 41.8154 6.8197C47.6824 6.8197 49.8894 10.1164 49.8894 13.8321H46.7325C46.5648 11.3177 45.2797 9.36204 41.8154 9.36204C37.5968 9.36204 36.7028 12.2955 36.7028 15.9553C36.7028 19.6152 37.5968 22.5207 41.8154 22.5207C45.3076 22.5207 46.5648 20.6768 46.7325 18.0227H49.8894C49.8894 21.962 47.7103 25.091 41.8154 25.091Z" fill="currentColor"/>
<path d="M60.8202 25.091C53.9475 25.091 52.2992 20.8165 52.2992 15.9274C52.2992 11.0383 53.9755 6.81969 60.8202 6.81969C67.7208 6.81969 69.3412 11.0383 69.3412 15.9833C69.3412 20.8165 67.7208 25.091 60.8202 25.091ZM55.4282 15.9274C55.4282 19.6152 56.3781 22.5486 60.8202 22.5486C65.3182 22.5486 66.2401 19.6152 66.2401 15.9833C66.2401 12.2675 65.3182 9.36202 60.8202 9.36202C56.3781 9.36202 55.4282 12.2675 55.4282 15.9274Z" fill="currentColor"/>
<path d="M69.637 24.8955L76.5097 7.01538H80.6724L87.3775 24.8955H84.1088L82.9075 21.4033H74.135L72.8499 24.8955H69.637ZM74.8893 19.1683H82.1252L78.5212 8.99896L74.8893 19.1683Z" fill="currentColor"/>
<path d="M95.3252 25.091C90.3243 25.091 87.5306 22.9398 87.5026 18.4977H90.5758C90.7155 21.1518 92.252 22.4369 95.5766 22.4369C98.3145 22.4369 99.7673 21.5988 99.7673 19.8946C99.7673 18.0507 98.091 17.7433 94.9899 17.017C90.2685 15.8995 88.0334 14.9775 88.0334 11.8205C88.0334 8.44008 90.6317 6.81969 95.0458 6.81969C99.9908 6.81969 102.477 8.91502 102.533 13.1057H99.4879C99.3203 10.4795 98.0072 9.38996 94.9341 9.38996C92.28 9.38996 91.0507 10.1443 91.0507 11.7088C91.0507 13.4409 92.5873 13.7762 96.0516 14.6143C100.55 15.7039 102.785 16.542 102.785 19.699C102.785 23.1074 100.186 25.091 95.3252 25.091Z" fill="currentColor"/>
<path d="M108.424 24.8955V9.52978H103.284V7.01538H116.554V9.52978H111.414V24.8955H108.424Z" fill="currentColor"/>
<path d="M130.619 24.9233L117.237 24.8954V22.1854C117.265 15.3128 127.378 16.7376 127.602 12.5469C127.741 10.5913 126.708 9.33408 124.053 9.33408C121.316 9.33408 120.394 10.8707 120.394 13.1895H117.404C117.404 9.55759 119.081 6.81969 123.97 6.81969C128.97 6.81969 130.814 9.33408 130.647 12.7146C130.311 18.9167 120.198 17.6316 120.198 22.0458V22.381H130.619V24.9233Z" fill="currentColor"/>
<path d="M140.279 25.091C133.601 25.091 132.037 20.8444 132.037 15.9553C132.037 11.0662 133.629 6.81969 140.279 6.81969C146.145 6.81969 148.353 10.1163 148.353 13.8321H145.196C145.028 11.3177 143.743 9.36202 140.279 9.36202C136.06 9.36202 135.166 12.2955 135.166 15.9553C135.166 19.6152 136.06 22.5207 140.279 22.5207C143.771 22.5207 145.028 20.6768 145.196 18.0227H148.353C148.353 21.9619 146.173 25.091 140.279 25.091Z" fill="currentColor"/>
</svg>
