<svg preserveAspectRatio="none" width="100%" height="100%" overflow="visible" style="display: block;" viewBox="0 0 822 1117" fill="none" xmlns="http://www.w3.org/2000/svg">
<path id="Vector 3" d="M821.5 258.829V27.9426C821.5 12.7865 809.248 0.5 794.133 0.5H445.297C400.442 0.5 358.077 21.1824 330.411 56.5878L12.1509 463.876C4.6021 473.536 0.5 485.455 0.5 497.728V619.272C0.5 631.545 4.6021 643.464 12.1509 653.124L330.411 1060.41C358.077 1095.82 400.442 1116.5 445.297 1116.5H794.133C809.247 1116.5 821.5 1104.21 821.5 1089.06V854.654C821.5 842.63 813.694 832.006 802.241 828.444L142.003 623.077C134.368 620.702 129.164 613.619 129.164 605.603V511.33C129.164 503.346 134.327 496.284 141.921 493.882L802.365 285.001C813.755 281.399 821.5 270.805 821.5 258.829Z" stroke="var(--stroke-0, #3A3A40)"/>
</svg>
