<svg width="18" height="18" viewBox="0 0 18 18" fill="none" xmlns="http://www.w3.org/2000/svg">
<path fill-rule="evenodd" clip-rule="evenodd" d="M7.72715 13.7229V4.69739C7.72715 4.41038 7.8135 4.23849 7.98712 4.18323C10.8783 3.49958 13.7991 5.51639 14.0645 8.55491C16.8909 7.36143 19.3485 10.9581 17.158 13.1178C16.603 13.665 15.9374 13.9387 15.161 13.9387L7.87737 13.9307C7.78112 13.8986 7.72715 13.7986 7.72715 13.7229ZM5.76792 13.4575C5.76792 14.1099 7.00751 14.1179 7.00751 13.4575V4.77386C7.00751 3.95205 5.76792 3.95562 5.76792 4.77386V13.4575ZM3.84288 13.4575C3.84288 14.0948 5.08157 14.1197 5.08157 13.4575V8.33914C5.08157 7.51734 3.84288 7.52091 3.84288 8.33914V13.4575ZM1.92504 13.1916C1.92504 13.8476 3.15653 13.8583 3.15653 13.1916V7.58416C3.15653 6.78998 1.92504 6.78018 1.92504 7.58416V13.1916ZM0 12.1633C0 12.9289 1.23059 13.1223 1.23059 12.1633V9.75726C1.23059 8.94258 0 8.94971 0 9.75726V12.1633Z" fill="currentColor"/>
</svg>
