<svg xmlns="http://www.w3.org/2000/svg" width="1200" height="675" viewBox="0 0 1200 675">
  <defs>
    <radialGradient id="bg" cx="25%" cy="20%" r="85%">
      <stop offset="0" stop-color="#1e293b" />
      <stop offset="1" stop-color="#020617" />
    </radialGradient>
  </defs>
  <rect width="1200" height="675" fill="url(#bg)" />
  <g opacity="0.9">
    <rect x="100" y="110" width="420" height="455" rx="28" fill="#0b1220" stroke="#334155" />
    <rect x="140" y="170" width="340" height="220" rx="18" fill="#111827" stroke="#1e293b" />
    <rect x="140" y="420" width="220" height="26" rx="13" fill="#e2e8f0" fill-opacity="0.18" />
    <rect x="140" y="462" width="300" height="18" rx="9" fill="#e2e8f0" fill-opacity="0.12" />
    <rect x="140" y="498" width="260" height="18" rx="9" fill="#e2e8f0" fill-opacity="0.10" />
  </g>
  <g opacity="0.9">
    <rect x="580" y="110" width="520" height="210" rx="28" fill="#0b1220" stroke="#334155" />
    <rect x="620" y="160" width="310" height="28" rx="14" fill="#3b82f6" fill-opacity="0.9" />
    <rect x="620" y="210" width="420" height="18" rx="9" fill="#e2e8f0" fill-opacity="0.14" />
    <rect x="620" y="244" width="360" height="18" rx="9" fill="#e2e8f0" fill-opacity="0.11" />
  </g>
  <g opacity="0.9">
    <rect x="580" y="355" width="520" height="210" rx="28" fill="#0b1220" stroke="#334155" />
    <circle cx="650" cy="430" r="30" fill="#3b82f6" fill-opacity="0.9" />
    <rect x="700" y="410" width="320" height="20" rx="10" fill="#e2e8f0" fill-opacity="0.14" />
    <rect x="700" y="444" width="250" height="16" rx="8" fill="#e2e8f0" fill-opacity="0.10" />
  </g>
</svg>

